<svg version="1.0" preserveAspectRatio="xMidYMid meet" viewBox="37.0824 154.09124630181 301.5 71.999998272" zoomAndPan="magnify" xmlns:xlink="http://www.w3.org/1999/xlink" xmlns="http://www.w3.org/2000/svg" style="max-height: 500px" width="301.5" height="71.999998272"><defs><g/></defs><rect fill-opacity="1" height="449.999989" y="-37.499999" fill="transparent" width="450" x="-37.5"/><rect fill-opacity="1" height="449.999989" y="-37.499999" fill="transparent" width="450" x="-37.5"/><g fill-opacity="1" fill="#5129a6"><g transform="translate(43.00242, 213.749986)"><g><path d="M 27.203125 -45.609375 C 27.460938 -46.085938 27.859375 -46.328125 28.390625 -46.328125 L 38.453125 -46.328125 C 38.722656 -46.328125 38.929688 -46.238281 39.078125 -46.0625 C 39.234375 -45.882812 39.289062 -45.644531 39.25 -45.34375 L 33.828125 -1 C 33.773438 -0.6875 33.648438 -0.441406 33.453125 -0.265625 C 33.253906 -0.0859375 33.023438 0 32.765625 0 L 22.5625 0 C 22.300781 0 22.09375 -0.0859375 21.9375 -0.265625 C 21.78125 -0.441406 21.726562 -0.6875 21.78125 -1 L 25.078125 -28.0625 C 25.128906 -28.238281 25.097656 -28.335938 24.984375 -28.359375 C 24.867188 -28.378906 24.769531 -28.328125 24.6875 -28.203125 L 20.1875 -21.703125 L 19.390625 -20.515625 L 19.328125 -20.515625 L 15.953125 -28.203125 C 15.910156 -28.328125 15.84375 -28.378906 15.75 -28.359375 C 15.664062 -28.335938 15.597656 -28.238281 15.546875 -28.0625 L 12.25 -1 C 12.195312 -0.6875 12.082031 -0.441406 11.90625 -0.265625 C 11.738281 -0.0859375 11.5 0 11.1875 0 L 1.0625 0 C 0.75 0 0.515625 -0.0859375 0.359375 -0.265625 C 0.203125 -0.441406 0.148438 -0.6875 0.203125 -1 L 5.625 -45.34375 C 5.664062 -45.644531 5.785156 -45.882812 5.984375 -46.0625 C 6.179688 -46.238281 6.414062 -46.328125 6.6875 -46.328125 L 16.75 -46.328125 C 17.28125 -46.328125 17.628906 -46.085938 17.796875 -45.609375 L 21.3125 -37 C 21.394531 -36.820312 21.523438 -36.820312 21.703125 -37 Z M 27.203125 -45.609375"/></g></g></g><g fill-opacity="1" fill="#5129a6"><g transform="translate(84.039463, 213.749986)"><g><path d="M 30.578125 -36.671875 C 30.535156 -36.359375 30.414062 -36.113281 30.21875 -35.9375 C 30.019531 -35.757812 29.765625 -35.671875 29.453125 -35.671875 L 17.140625 -35.671875 C 16.921875 -35.671875 16.8125 -35.5625 16.8125 -35.34375 L 16.015625 -28.859375 C 15.929688 -28.640625 16.019531 -28.53125 16.28125 -28.53125 L 22.703125 -28.53125 C 23.015625 -28.53125 23.242188 -28.441406 23.390625 -28.265625 C 23.546875 -28.085938 23.601562 -27.84375 23.5625 -27.53125 L 22.5 -18.859375 C 22.375 -18.203125 22 -17.875 21.375 -17.875 L 14.953125 -17.875 C 14.734375 -17.875 14.625 -17.765625 14.625 -17.546875 L 13.828125 -10.984375 C 13.742188 -10.765625 13.832031 -10.65625 14.09375 -10.65625 L 26.40625 -10.65625 C 26.71875 -10.65625 26.945312 -10.566406 27.09375 -10.390625 C 27.25 -10.210938 27.304688 -9.96875 27.265625 -9.65625 L 26.203125 -1 C 26.160156 -0.6875 26.039062 -0.441406 25.84375 -0.265625 C 25.644531 -0.0859375 25.390625 0 25.078125 0 L 1.328125 0 C 1.054688 0 0.84375 -0.0859375 0.6875 -0.265625 C 0.539062 -0.441406 0.488281 -0.6875 0.53125 -1 L 5.953125 -45.34375 C 5.992188 -45.644531 6.113281 -45.882812 6.3125 -46.0625 C 6.519531 -46.238281 6.753906 -46.328125 7.015625 -46.328125 L 30.78125 -46.328125 C 31.082031 -46.328125 31.3125 -46.238281 31.46875 -46.0625 C 31.625 -45.882812 31.679688 -45.644531 31.640625 -45.34375 Z M 30.578125 -36.671875"/></g></g></g><g fill-opacity="1" fill="#5129a6"><g transform="translate(117.266394, 213.749986)"><g><path d="M 1.328125 0 C 1.054688 0 0.84375 -0.0859375 0.6875 -0.265625 C 0.539062 -0.441406 0.488281 -0.6875 0.53125 -1 L 5.953125 -45.34375 C 5.992188 -45.644531 6.113281 -45.882812 6.3125 -46.0625 C 6.519531 -46.238281 6.753906 -46.328125 7.015625 -46.328125 L 19.65625 -46.328125 C 23.582031 -46.328125 26.703125 -45.300781 29.015625 -43.25 C 31.335938 -41.195312 32.5 -38.453125 32.5 -35.015625 C 32.5 -34.617188 32.453125 -33.976562 32.359375 -33.09375 L 29.921875 -13.234375 C 29.609375 -10.628906 28.734375 -8.320312 27.296875 -6.3125 C 25.867188 -4.3125 23.992188 -2.757812 21.671875 -1.65625 C 19.359375 -0.550781 16.789062 0 13.96875 0 Z M 13.828125 -10.984375 C 13.742188 -10.765625 13.832031 -10.65625 14.09375 -10.65625 L 15.03125 -10.71875 C 15.726562 -10.757812 16.351562 -11.085938 16.90625 -11.703125 C 17.457031 -12.328125 17.820312 -13.125 18 -14.09375 L 20.1875 -32.296875 L 20.25 -33.03125 C 20.25 -33.863281 20.050781 -34.507812 19.65625 -34.96875 C 19.257812 -35.4375 18.726562 -35.671875 18.0625 -35.671875 L 17.140625 -35.671875 C 16.921875 -35.671875 16.8125 -35.5625 16.8125 -35.34375 Z M 13.828125 -10.984375"/></g></g></g><g fill-opacity="1" fill="#5129a6"><g transform="translate(153.008436, 213.749986)"><g><path d="M 1.328125 0 C 1.054688 0 0.84375 -0.0859375 0.6875 -0.265625 C 0.539062 -0.441406 0.488281 -0.6875 0.53125 -1 L 5.953125 -45.34375 C 5.992188 -45.644531 6.113281 -45.882812 6.3125 -46.0625 C 6.519531 -46.238281 6.753906 -46.328125 7.015625 -46.328125 L 17.203125 -46.328125 C 17.472656 -46.328125 17.679688 -46.238281 17.828125 -46.0625 C 17.984375 -45.882812 18.039062 -45.644531 18 -45.34375 L 12.578125 -1 C 12.535156 -0.6875 12.410156 -0.441406 12.203125 -0.265625 C 12.003906 -0.0859375 11.773438 0 11.515625 0 Z M 1.328125 0"/></g></g></g><g fill-opacity="1" fill="#5129a6"><g transform="translate(173.130249, 213.749986)"><g><path d="M 20.578125 0 C 19.960938 0 19.675781 -0.304688 19.71875 -0.921875 L 19.59375 -5.953125 C 19.632812 -6.046875 19.609375 -6.125 19.515625 -6.1875 C 19.429688 -6.25 19.347656 -6.28125 19.265625 -6.28125 L 13.5 -6.28125 C 13.28125 -6.28125 13.125 -6.171875 13.03125 -5.953125 L 11.78125 -0.921875 C 11.644531 -0.304688 11.269531 0 10.65625 0 L 0.59375 0 C -0.0625 0 -0.300781 -0.351562 -0.125 -1.0625 L 14.421875 -45.46875 C 14.597656 -46.039062 15 -46.328125 15.625 -46.328125 L 27.328125 -46.328125 C 27.953125 -46.328125 28.285156 -46.039062 28.328125 -45.46875 L 31.96875 -1.0625 L 31.96875 -0.921875 C 31.96875 -0.304688 31.632812 0 30.96875 0 Z M 15.75 -16.15625 C 15.664062 -15.925781 15.734375 -15.8125 15.953125 -15.8125 L 19.0625 -15.8125 C 19.195312 -15.8125 19.304688 -15.925781 19.390625 -16.15625 L 19.125 -28.390625 C 19.125 -28.566406 19.066406 -28.644531 18.953125 -28.625 C 18.847656 -28.601562 18.796875 -28.523438 18.796875 -28.390625 Z M 15.75 -16.15625"/></g></g></g><g fill-opacity="1" fill="#5129a6"><g transform="translate(211.916929, 213.749986)"><g/></g></g><g fill-opacity="1" fill="#5129a6"><g transform="translate(229.457436, 213.749986)"><g><path d="M 21.78125 -45.34375 C 21.820312 -45.644531 21.929688 -45.882812 22.109375 -46.0625 C 22.285156 -46.238281 22.523438 -46.328125 22.828125 -46.328125 L 32.96875 -46.328125 C 33.269531 -46.328125 33.5 -46.238281 33.65625 -46.0625 C 33.8125 -45.882812 33.867188 -45.644531 33.828125 -45.34375 L 28.390625 -1 C 28.347656 -0.6875 28.226562 -0.441406 28.03125 -0.265625 C 27.832031 -0.0859375 27.578125 0 27.265625 0 L 17.140625 0 C 16.828125 0 16.59375 -0.0859375 16.4375 -0.265625 C 16.289062 -0.441406 16.238281 -0.6875 16.28125 -1 L 18.328125 -17.546875 C 18.328125 -17.765625 18.238281 -17.875 18.0625 -17.875 L 14.953125 -17.875 C 14.734375 -17.875 14.625 -17.765625 14.625 -17.546875 L 12.578125 -1 C 12.535156 -0.6875 12.410156 -0.441406 12.203125 -0.265625 C 12.003906 -0.0859375 11.773438 0 11.515625 0 L 1.328125 0 C 1.054688 0 0.84375 -0.0859375 0.6875 -0.265625 C 0.539062 -0.441406 0.488281 -0.6875 0.53125 -1 L 5.953125 -45.34375 C 5.992188 -45.644531 6.113281 -45.882812 6.3125 -46.0625 C 6.519531 -46.238281 6.753906 -46.328125 7.015625 -46.328125 L 17.203125 -46.328125 C 17.472656 -46.328125 17.679688 -46.238281 17.828125 -46.0625 C 17.984375 -45.882812 18.039062 -45.644531 18 -45.34375 L 16.015625 -28.859375 C 15.929688 -28.640625 16.019531 -28.53125 16.28125 -28.53125 L 19.390625 -28.53125 C 19.484375 -28.53125 19.5625 -28.5625 19.625 -28.625 C 19.6875 -28.6875 19.71875 -28.765625 19.71875 -28.859375 Z M 21.78125 -45.34375"/></g></g></g><g fill-opacity="1" fill="#5129a6"><g transform="translate(265.331857, 213.749986)"><g><path d="M 14.09375 0.53125 C 10.300781 0.53125 7.300781 -0.546875 5.09375 -2.703125 C 2.882812 -4.867188 1.78125 -7.785156 1.78125 -11.453125 C 1.78125 -11.929688 1.828125 -12.703125 1.921875 -13.765625 L 5.828125 -45.34375 C 5.867188 -45.644531 5.988281 -45.882812 6.1875 -46.0625 C 6.382812 -46.238281 6.617188 -46.328125 6.890625 -46.328125 L 17.078125 -46.328125 C 17.335938 -46.328125 17.546875 -46.238281 17.703125 -46.0625 C 17.859375 -45.882812 17.914062 -45.644531 17.875 -45.34375 L 13.90625 -12.578125 C 13.8125 -11.828125 13.894531 -11.226562 14.15625 -10.78125 C 14.425781 -10.34375 14.847656 -10.125 15.421875 -10.125 C 15.992188 -10.125 16.46875 -10.34375 16.84375 -10.78125 C 17.21875 -11.226562 17.453125 -11.828125 17.546875 -12.578125 L 21.578125 -45.34375 C 21.617188 -45.644531 21.726562 -45.882812 21.90625 -46.0625 C 22.082031 -46.238281 22.328125 -46.328125 22.640625 -46.328125 L 32.765625 -46.328125 C 33.066406 -46.328125 33.296875 -46.238281 33.453125 -46.0625 C 33.609375 -45.882812 33.664062 -45.644531 33.625 -45.34375 L 29.71875 -13.765625 C 29.363281 -10.941406 28.476562 -8.445312 27.0625 -6.28125 C 25.65625 -4.125 23.828125 -2.445312 21.578125 -1.25 C 19.328125 -0.0625 16.832031 0.53125 14.09375 0.53125 Z M 14.09375 0.53125"/></g></g></g><g fill-opacity="1" fill="#5129a6"><g transform="translate(300.941519, 213.749986)"><g><path d="M 30.375 -13.296875 C 29.894531 -9.023438 28.207031 -5.738281 25.3125 -3.4375 C 22.425781 -1.144531 18.953125 0 14.890625 0 L 1.328125 0 C 1.054688 0 0.84375 -0.0859375 0.6875 -0.265625 C 0.539062 -0.441406 0.488281 -0.6875 0.53125 -1 L 5.953125 -45.34375 C 5.992188 -45.644531 6.113281 -45.882812 6.3125 -46.0625 C 6.519531 -46.238281 6.753906 -46.328125 7.015625 -46.328125 L 18.671875 -46.328125 C 22.898438 -46.328125 26.191406 -45.429688 28.546875 -43.640625 C 30.910156 -41.859375 32.09375 -39.160156 32.09375 -35.546875 C 32.09375 -35.097656 32.050781 -34.347656 31.96875 -33.296875 C 31.4375 -29.191406 29.828125 -26.144531 27.140625 -24.15625 C 26.867188 -24.019531 26.800781 -23.890625 26.9375 -23.765625 C 29.320312 -21.734375 30.515625 -18.882812 30.515625 -15.21875 C 30.515625 -14.820312 30.46875 -14.179688 30.375 -13.296875 Z M 17.140625 -35.671875 C 16.921875 -35.671875 16.8125 -35.5625 16.8125 -35.34375 L 15.953125 -28.59375 C 15.953125 -28.375 16.039062 -28.265625 16.21875 -28.265625 L 16.609375 -28.265625 C 18.503906 -28.265625 19.628906 -29.5 19.984375 -31.96875 L 20.0625 -32.828125 C 20.0625 -34.722656 19.222656 -35.671875 17.546875 -35.671875 Z M 15.21875 -10.65625 C 16.1875 -10.65625 16.988281 -11.117188 17.625 -12.046875 C 18.269531 -12.972656 18.59375 -14.296875 18.59375 -16.015625 C 18.59375 -17.035156 18.394531 -17.851562 18 -18.46875 C 17.601562 -19.082031 17.050781 -19.390625 16.34375 -19.390625 L 15.15625 -19.390625 C 14.9375 -19.390625 14.828125 -19.28125 14.828125 -19.0625 L 13.828125 -10.984375 C 13.742188 -10.765625 13.832031 -10.65625 14.09375 -10.65625 Z M 15.21875 -10.65625"/></g></g></g></svg>