<svg version="1.0" preserveAspectRatio="xMidYMid meet" viewBox="83.33798399999999 308.53709733363 646.38 163.619998586" zoomAndPan="magnify" xmlns:xlink="http://www.w3.org/1999/xlink" xmlns="http://www.w3.org/2000/svg" style="max-height: 500px" width="646.38" height="163.619998586"><defs><g/></defs><rect fill-opacity="1" height="971.999992" y="-80.999999" fill="transparent" width="972" x="-81"/><rect fill-opacity="1" height="971.999992" y="-80.999999" fill="transparent" width="972" x="-81"/><g fill-opacity="1" fill="#5e17eb"><g transform="translate(88.406249, 438.835104)"><g><path d="M 29.109375 1.125 C 21.085938 1.125 14.742188 -0.953125 10.078125 -5.109375 C 5.410156 -9.265625 3.078125 -14.789062 3.078125 -21.6875 C 3.078125 -22.34375 3.171875 -23.507812 3.359375 -25.1875 L 3.921875 -29.53125 C 4.015625 -30.1875 4.269531 -30.703125 4.6875 -31.078125 C 5.101562 -31.453125 5.59375 -31.640625 6.15625 -31.640625 L 27.4375 -31.640625 C 28 -31.640625 28.441406 -31.453125 28.765625 -31.078125 C 29.085938 -30.703125 29.203125 -30.1875 29.109375 -29.53125 L 28.828125 -26.453125 C 28.640625 -24.960938 28.828125 -23.75 29.390625 -22.8125 C 29.953125 -21.882812 30.789062 -21.421875 31.90625 -21.421875 C 33.125 -21.421875 34.148438 -21.929688 34.984375 -22.953125 C 35.828125 -23.984375 36.25 -25.242188 36.25 -26.734375 C 36.25 -28.128906 35.570312 -29.570312 34.21875 -31.0625 C 32.863281 -32.5625 30.273438 -34.851562 26.453125 -37.9375 C 22.722656 -41.007812 19.644531 -43.734375 17.21875 -46.109375 C 14.789062 -48.492188 12.691406 -51.4375 10.921875 -54.9375 C 9.148438 -58.4375 8.265625 -62.425781 8.265625 -66.90625 C 8.265625 -67.75 8.351562 -69.195312 8.53125 -71.25 C 9.5625 -79.550781 13.015625 -86.265625 18.890625 -91.390625 C 24.773438 -96.523438 32.101562 -99.09375 40.875 -99.09375 C 48.894531 -99.09375 55.210938 -96.945312 59.828125 -92.65625 C 64.453125 -88.363281 66.765625 -82.578125 66.765625 -75.296875 C 66.765625 -74.460938 66.671875 -73.113281 66.484375 -71.25 L 66.0625 -68.171875 C 65.96875 -67.515625 65.710938 -67 65.296875 -66.625 C 64.878906 -66.25 64.390625 -66.0625 63.828125 -66.0625 L 42.6875 -66.0625 C 42.125 -66.0625 41.679688 -66.25 41.359375 -66.625 C 41.035156 -67 40.921875 -67.515625 41.015625 -68.171875 L 41.4375 -71.796875 C 41.53125 -73.203125 41.269531 -74.347656 40.65625 -75.234375 C 40.050781 -76.117188 39.191406 -76.5625 38.078125 -76.5625 C 36.765625 -76.5625 35.6875 -76 34.84375 -74.875 C 34.007812 -73.757812 33.59375 -72.269531 33.59375 -70.40625 C 33.59375 -68.820312 34.242188 -67.1875 35.546875 -65.5 C 36.859375 -63.820312 39.285156 -61.488281 42.828125 -58.5 C 47.585938 -54.488281 51.226562 -51.242188 53.75 -48.765625 C 56.269531 -46.296875 58.25 -43.59375 59.6875 -40.65625 C 61.132812 -37.71875 61.859375 -34.382812 61.859375 -30.65625 C 61.859375 -29.90625 61.769531 -28.597656 61.59375 -26.734375 C 60.46875 -18.242188 56.941406 -11.476562 51.015625 -6.4375 C 45.085938 -1.394531 37.785156 1.125 29.109375 1.125 Z M 29.109375 1.125"/></g></g></g><g fill-opacity="1" fill="#5e17eb"><g transform="translate(151.246921, 438.835104)"><g><path d="M 43.53125 0 C 42.226562 0 41.617188 -0.648438 41.703125 -1.953125 L 41.4375 -12.59375 C 41.53125 -12.78125 41.484375 -12.941406 41.296875 -13.078125 C 41.109375 -13.222656 40.921875 -13.296875 40.734375 -13.296875 L 28.546875 -13.296875 C 28.085938 -13.296875 27.765625 -13.0625 27.578125 -12.59375 L 24.921875 -1.953125 C 24.640625 -0.648438 23.84375 0 22.53125 0 L 1.265625 0 C -0.140625 0 -0.65625 -0.742188 -0.28125 -2.234375 L 30.515625 -96.15625 C 30.890625 -97.375 31.726562 -97.984375 33.03125 -97.984375 L 57.8125 -97.984375 C 59.113281 -97.984375 59.8125 -97.375 59.90625 -96.15625 L 67.609375 -2.234375 L 67.609375 -1.953125 C 67.609375 -0.648438 66.90625 0 65.5 0 Z M 33.3125 -34.15625 C 33.125 -33.6875 33.265625 -33.453125 33.734375 -33.453125 L 40.3125 -33.453125 C 40.59375 -33.453125 40.828125 -33.6875 41.015625 -34.15625 L 40.453125 -60.046875 C 40.453125 -60.421875 40.332031 -60.582031 40.09375 -60.53125 C 39.863281 -60.488281 39.75 -60.328125 39.75 -60.046875 Z M 33.3125 -34.15625"/></g></g></g><g fill-opacity="1" fill="#5e17eb"><g transform="translate(223.324749, 438.835104)"><g><path d="M 29.8125 1.125 C 21.789062 1.125 15.445312 -1.160156 10.78125 -5.734375 C 6.113281 -10.304688 3.78125 -16.46875 3.78125 -24.21875 C 3.78125 -25.238281 3.875 -26.867188 4.0625 -29.109375 L 12.3125 -95.875 C 12.40625 -96.53125 12.660156 -97.046875 13.078125 -97.421875 C 13.503906 -97.796875 14 -97.984375 14.5625 -97.984375 L 36.109375 -97.984375 C 36.671875 -97.984375 37.113281 -97.796875 37.4375 -97.421875 C 37.769531 -97.046875 37.890625 -96.53125 37.796875 -95.875 L 29.390625 -26.59375 C 29.203125 -25.007812 29.390625 -23.75 29.953125 -22.8125 C 30.515625 -21.882812 31.398438 -21.421875 32.609375 -21.421875 C 33.828125 -21.421875 34.832031 -21.882812 35.625 -22.8125 C 36.414062 -23.75 36.90625 -25.007812 37.09375 -26.59375 L 45.625 -95.875 C 45.71875 -96.53125 45.953125 -97.046875 46.328125 -97.421875 C 46.703125 -97.796875 47.21875 -97.984375 47.875 -97.984375 L 69.28125 -97.984375 C 69.9375 -97.984375 70.425781 -97.796875 70.75 -97.421875 C 71.082031 -97.046875 71.203125 -96.53125 71.109375 -95.875 L 62.84375 -29.109375 C 62.09375 -23.140625 60.222656 -17.867188 57.234375 -13.296875 C 54.253906 -8.722656 50.382812 -5.175781 45.625 -2.65625 C 40.863281 -0.132812 35.59375 1.125 29.8125 1.125 Z M 29.8125 1.125"/></g></g></g><g fill-opacity="1" fill="#5e17eb"><g transform="translate(288.684643, 438.835104)"><g><path d="M 2.796875 0 C 2.234375 0 1.789062 -0.1875 1.46875 -0.5625 C 1.144531 -0.9375 1.03125 -1.445312 1.125 -2.09375 L 12.59375 -95.875 C 12.6875 -96.53125 12.941406 -97.046875 13.359375 -97.421875 C 13.785156 -97.796875 14.28125 -97.984375 14.84375 -97.984375 L 41.578125 -97.984375 C 49.878906 -97.984375 56.476562 -95.8125 61.375 -91.46875 C 66.269531 -87.132812 68.71875 -81.328125 68.71875 -74.046875 C 68.71875 -73.203125 68.625 -71.847656 68.4375 -69.984375 L 63.265625 -28 C 62.609375 -22.488281 60.765625 -17.609375 57.734375 -13.359375 C 54.703125 -9.117188 50.734375 -5.832031 45.828125 -3.5 C 40.929688 -1.164062 35.5 0 29.53125 0 Z M 29.25 -23.234375 C 29.0625 -22.765625 29.25 -22.53125 29.8125 -22.53125 L 31.765625 -22.671875 C 33.265625 -22.765625 34.597656 -23.460938 35.765625 -24.765625 C 36.929688 -26.078125 37.703125 -27.757812 38.078125 -29.8125 L 42.6875 -68.3125 L 42.828125 -69.84375 C 42.828125 -71.613281 42.40625 -72.988281 41.5625 -73.96875 C 40.726562 -74.945312 39.613281 -75.4375 38.21875 -75.4375 L 36.25 -75.4375 C 35.78125 -75.4375 35.546875 -75.207031 35.546875 -74.75 Z M 29.25 -23.234375"/></g></g></g><g fill-opacity="1" fill="#5e17eb"><g transform="translate(354.324448, 438.835104)"><g><path d="M 2.796875 0 C 2.234375 0 1.789062 -0.1875 1.46875 -0.5625 C 1.144531 -0.9375 1.03125 -1.445312 1.125 -2.09375 L 12.59375 -95.875 C 12.6875 -96.53125 12.941406 -97.046875 13.359375 -97.421875 C 13.785156 -97.796875 14.28125 -97.984375 14.84375 -97.984375 L 36.390625 -97.984375 C 36.953125 -97.984375 37.394531 -97.796875 37.71875 -97.421875 C 38.050781 -97.046875 38.171875 -96.53125 38.078125 -95.875 L 26.59375 -2.09375 C 26.5 -1.445312 26.238281 -0.9375 25.8125 -0.5625 C 25.394531 -0.1875 24.910156 0 24.359375 0 Z M 2.796875 0"/></g></g></g><g fill-opacity="1" fill="#5e17eb"><g transform="translate(386.934432, 438.835104)"><g/></g></g><g fill-opacity="1" fill="#5e17eb"><g transform="translate(414.086087, 438.835104)"><g><path d="M 57.53125 -96.4375 C 58.082031 -97.46875 58.921875 -97.984375 60.046875 -97.984375 L 81.328125 -97.984375 C 81.878906 -97.984375 82.316406 -97.796875 82.640625 -97.421875 C 82.972656 -97.046875 83.09375 -96.53125 83 -95.875 L 71.53125 -2.09375 C 71.4375 -1.445312 71.175781 -0.9375 70.75 -0.5625 C 70.332031 -0.1875 69.84375 0 69.28125 0 L 47.734375 0 C 47.171875 0 46.722656 -0.1875 46.390625 -0.5625 C 46.066406 -0.9375 45.953125 -1.445312 46.046875 -2.09375 L 53.046875 -59.34375 C 53.140625 -59.71875 53.066406 -59.925781 52.828125 -59.96875 C 52.597656 -60.019531 52.390625 -59.90625 52.203125 -59.625 L 42.6875 -45.90625 L 41.015625 -43.390625 L 40.875 -43.390625 L 33.734375 -59.625 C 33.640625 -59.90625 33.5 -60.019531 33.3125 -59.96875 C 33.125 -59.925781 32.984375 -59.71875 32.890625 -59.34375 L 25.890625 -2.09375 C 25.796875 -1.445312 25.5625 -0.9375 25.1875 -0.5625 C 24.820312 -0.1875 24.3125 0 23.65625 0 L 2.234375 0 C 1.585938 0 1.097656 -0.1875 0.765625 -0.5625 C 0.441406 -0.9375 0.328125 -1.445312 0.421875 -2.09375 L 11.890625 -95.875 C 11.984375 -96.53125 12.238281 -97.046875 12.65625 -97.421875 C 13.082031 -97.796875 13.578125 -97.984375 14.140625 -97.984375 L 35.40625 -97.984375 C 36.53125 -97.984375 37.28125 -97.46875 37.65625 -96.4375 L 45.0625 -78.25 C 45.25 -77.875 45.53125 -77.875 45.90625 -78.25 Z M 57.53125 -96.4375"/></g></g></g><g fill-opacity="1" fill="#5e17eb"><g transform="translate(490.922448, 438.835104)"><g><path d="M 64.671875 -77.546875 C 64.578125 -76.890625 64.316406 -76.375 63.890625 -76 C 63.472656 -75.625 62.9375 -75.4375 62.28125 -75.4375 L 36.25 -75.4375 C 35.78125 -75.4375 35.546875 -75.207031 35.546875 -74.75 L 33.875 -61.03125 C 33.6875 -60.5625 33.875 -60.328125 34.4375 -60.328125 L 48.015625 -60.328125 C 48.660156 -60.328125 49.144531 -60.140625 49.46875 -59.765625 C 49.800781 -59.390625 49.921875 -58.878906 49.828125 -58.234375 L 47.59375 -39.890625 C 47.3125 -38.492188 46.515625 -37.796875 45.203125 -37.796875 L 31.640625 -37.796875 C 31.171875 -37.796875 30.9375 -37.5625 30.9375 -37.09375 L 29.25 -23.234375 C 29.0625 -22.765625 29.25 -22.53125 29.8125 -22.53125 L 55.84375 -22.53125 C 56.5 -22.53125 56.988281 -22.34375 57.3125 -21.96875 C 57.644531 -21.601562 57.765625 -21.09375 57.671875 -20.4375 L 55.421875 -2.09375 C 55.328125 -1.445312 55.070312 -0.9375 54.65625 -0.5625 C 54.238281 -0.1875 53.703125 0 53.046875 0 L 2.796875 0 C 2.234375 0 1.789062 -0.1875 1.46875 -0.5625 C 1.144531 -0.9375 1.03125 -1.445312 1.125 -2.09375 L 12.59375 -95.875 C 12.6875 -96.53125 12.941406 -97.046875 13.359375 -97.421875 C 13.785156 -97.796875 14.28125 -97.984375 14.84375 -97.984375 L 65.078125 -97.984375 C 65.734375 -97.984375 66.222656 -97.796875 66.546875 -97.421875 C 66.878906 -97.046875 67 -96.53125 66.90625 -95.875 Z M 64.671875 -77.546875"/></g></g></g><g fill-opacity="1" fill="#5e17eb"><g transform="translate(551.243887, 438.835104)"><g><path d="M 2.796875 0 C 2.234375 0 1.789062 -0.1875 1.46875 -0.5625 C 1.144531 -0.9375 1.03125 -1.445312 1.125 -2.09375 L 12.59375 -95.875 C 12.6875 -96.53125 12.941406 -97.046875 13.359375 -97.421875 C 13.785156 -97.796875 14.28125 -97.984375 14.84375 -97.984375 L 41.578125 -97.984375 C 49.878906 -97.984375 56.476562 -95.8125 61.375 -91.46875 C 66.269531 -87.132812 68.71875 -81.328125 68.71875 -74.046875 C 68.71875 -73.203125 68.625 -71.847656 68.4375 -69.984375 L 63.265625 -28 C 62.609375 -22.488281 60.765625 -17.609375 57.734375 -13.359375 C 54.703125 -9.117188 50.734375 -5.832031 45.828125 -3.5 C 40.929688 -1.164062 35.5 0 29.53125 0 Z M 29.25 -23.234375 C 29.0625 -22.765625 29.25 -22.53125 29.8125 -22.53125 L 31.765625 -22.671875 C 33.265625 -22.765625 34.597656 -23.460938 35.765625 -24.765625 C 36.929688 -26.078125 37.703125 -27.757812 38.078125 -29.8125 L 42.6875 -68.3125 L 42.828125 -69.84375 C 42.828125 -71.613281 42.40625 -72.988281 41.5625 -73.96875 C 40.726562 -74.945312 39.613281 -75.4375 38.21875 -75.4375 L 36.25 -75.4375 C 35.78125 -75.4375 35.546875 -75.207031 35.546875 -74.75 Z M 29.25 -23.234375"/></g></g></g><g fill-opacity="1" fill="#5e17eb"><g transform="translate(616.883669, 438.835104)"><g><path d="M 2.796875 0 C 2.234375 0 1.789062 -0.1875 1.46875 -0.5625 C 1.144531 -0.9375 1.03125 -1.445312 1.125 -2.09375 L 12.59375 -95.875 C 12.6875 -96.53125 12.941406 -97.046875 13.359375 -97.421875 C 13.785156 -97.796875 14.28125 -97.984375 14.84375 -97.984375 L 36.390625 -97.984375 C 36.953125 -97.984375 37.394531 -97.796875 37.71875 -97.421875 C 38.050781 -97.046875 38.171875 -96.53125 38.078125 -95.875 L 26.59375 -2.09375 C 26.5 -1.445312 26.238281 -0.9375 25.8125 -0.5625 C 25.394531 -0.1875 24.910156 0 24.359375 0 Z M 2.796875 0"/></g></g></g><g fill-opacity="1" fill="#5e17eb"><g transform="translate(649.493652, 438.835104)"><g><path d="M 43.53125 0 C 42.226562 0 41.617188 -0.648438 41.703125 -1.953125 L 41.4375 -12.59375 C 41.53125 -12.78125 41.484375 -12.941406 41.296875 -13.078125 C 41.109375 -13.222656 40.921875 -13.296875 40.734375 -13.296875 L 28.546875 -13.296875 C 28.085938 -13.296875 27.765625 -13.0625 27.578125 -12.59375 L 24.921875 -1.953125 C 24.640625 -0.648438 23.84375 0 22.53125 0 L 1.265625 0 C -0.140625 0 -0.65625 -0.742188 -0.28125 -2.234375 L 30.515625 -96.15625 C 30.890625 -97.375 31.726562 -97.984375 33.03125 -97.984375 L 57.8125 -97.984375 C 59.113281 -97.984375 59.8125 -97.375 59.90625 -96.15625 L 67.609375 -2.234375 L 67.609375 -1.953125 C 67.609375 -0.648438 66.90625 0 65.5 0 Z M 33.3125 -34.15625 C 33.125 -33.6875 33.265625 -33.453125 33.734375 -33.453125 L 40.3125 -33.453125 C 40.59375 -33.453125 40.828125 -33.6875 41.015625 -34.15625 L 40.453125 -60.046875 C 40.453125 -60.421875 40.332031 -60.582031 40.09375 -60.53125 C 39.863281 -60.488281 39.75 -60.328125 39.75 -60.046875 Z M 33.3125 -34.15625"/></g></g></g></svg>