<svg xmlns="http://www.w3.org/2000/svg" width="646.38" height="163.62" style="max-height:500px" version="1.0" viewBox="83.338 308.537 646.38 163.62"><path fill="transparent" d="M-81-81h972v972H-81z"/><path fill="transparent" d="M-81-81h972v972H-81z"/><path fill="#5e17eb" d="M117.516 439.96c-8.024 0-14.368-2.078-19.032-6.234-4.668-4.157-7-9.68-7-16.578 0-.657.094-1.82.282-3.5l.562-4.344c.094-.656.348-1.172.766-1.547a2.12 2.12 0 0 1 1.468-.563h21.282c.562 0 1.004.188 1.328.563.32.375.437.89.344 1.547l-.282 3.078c-.187 1.492 0 2.703.563 3.64.562.93 1.398 1.391 2.515 1.391 1.22 0 2.243-.508 3.079-1.531.843-1.031 1.265-2.29 1.265-3.781 0-1.395-.68-2.836-2.031-4.328-1.355-1.5-3.945-3.79-7.766-6.875-3.73-3.07-6.808-5.797-9.234-8.172-2.43-2.383-4.527-5.328-6.297-8.828-1.773-3.5-2.656-7.489-2.656-11.97 0-.843.086-2.288.265-4.343 1.032-8.3 4.485-15.016 10.36-20.14 5.883-5.133 13.21-7.704 21.984-7.704 8.02 0 14.336 2.149 18.953 6.438 4.625 4.293 6.938 10.078 6.938 17.36 0 .835-.094 2.183-.281 4.046l-.422 3.078c-.094.656-.352 1.172-.766 1.547a2.127 2.127 0 0 1-1.469.563h-21.14c-.563 0-1.008-.188-1.328-.563-.325-.375-.438-.89-.344-1.547l.422-3.625c.093-1.406-.168-2.55-.782-3.437-.605-.883-1.464-1.328-2.578-1.328-1.312 0-2.39.562-3.234 1.687-.836 1.117-1.25 2.606-1.25 4.469 0 1.586.648 3.219 1.953 4.906 1.313 1.68 3.738 4.012 7.281 7 4.758 4.012 8.399 7.258 10.922 9.734 2.52 2.47 4.5 5.172 5.938 8.11 1.445 2.937 2.172 6.273 2.172 10 0 .75-.09 2.058-.266 3.922-1.125 8.492-4.652 15.258-10.578 20.297-5.93 5.043-13.23 7.562-21.906 7.562ZM194.778 438.835c-1.305 0-1.914-.648-1.828-1.953l-.266-10.64c.094-.188.047-.348-.14-.485-.188-.145-.375-.219-.563-.219h-12.187c-.461 0-.781.235-.969.703l-2.656 10.641c-.281 1.305-1.078 1.953-2.39 1.953h-21.266c-1.407 0-1.922-.742-1.547-2.234l30.797-93.922c.375-1.219 1.21-1.828 2.515-1.828h24.781c1.301 0 2 .61 2.094 1.828l7.703 93.922v.281c0 1.305-.703 1.953-2.11 1.953ZM184.56 404.68c-.187.469-.046.703.422.703h6.578c.282 0 .516-.234.704-.703l-.563-25.89c0-.376-.121-.536-.36-.485-.23.043-.343.203-.343.484ZM253.137 439.96c-8.023 0-14.367-2.285-19.031-6.86-4.668-4.57-7-10.734-7-18.484 0-1.02.094-2.648.281-4.89l8.25-66.766c.094-.656.348-1.172.766-1.547a2.18 2.18 0 0 1 1.484-.562h21.547c.563 0 1.004.187 1.328.562.332.375.453.89.36 1.547l-8.407 69.281c-.187 1.586 0 2.844.563 3.782.562.93 1.445 1.39 2.656 1.39 1.219 0 2.223-.46 3.016-1.39.789-.938 1.281-2.196 1.468-3.782l8.532-69.28c.093-.657.328-1.173.703-1.548.375-.375.89-.562 1.547-.562h21.406c.656 0 1.145.187 1.469.562.332.375.453.89.36 1.547l-8.267 66.766c-.75 5.968-2.62 11.242-5.609 15.812-2.98 4.574-6.851 8.121-11.61 10.64-4.761 2.524-10.03 3.782-15.812 3.782ZM291.482 438.835c-.563 0-1.008-.187-1.329-.562-.324-.375-.437-.883-.343-1.532l11.468-93.78c.094-.657.348-1.173.766-1.548a2.18 2.18 0 0 1 1.484-.562h26.735c8.3 0 14.898 2.172 19.797 6.515 4.894 4.336 7.343 10.141 7.343 17.422 0 .844-.093 2.2-.28 4.063l-5.173 41.984c-.656 5.512-2.5 10.39-5.531 14.64-3.031 4.243-7 7.528-11.906 9.86-4.899 2.336-10.328 3.5-16.297 3.5Zm26.453-23.234c-.188.468 0 .703.562.703l1.953-.14c1.5-.095 2.832-.79 4-2.095 1.164-1.312 1.938-2.992 2.313-5.046l4.61-38.5.14-1.532c0-1.77-.422-3.144-1.266-4.125-.836-.976-1.95-1.468-3.344-1.468h-1.968c-.47 0-.703.23-.703.687ZM357.121 438.835c-.562 0-1.007-.187-1.328-.562-.324-.375-.437-.883-.344-1.532l11.47-93.78c.093-.657.347-1.173.765-1.548a2.18 2.18 0 0 1 1.484-.562h21.547c.563 0 1.004.187 1.328.562.332.375.453.89.36 1.547l-11.485 93.781c-.094.649-.355 1.157-.781 1.532a2.11 2.11 0 0 1-1.453.562ZM471.617 342.398c.551-1.032 1.391-1.547 2.516-1.547h21.281c.551 0 .988.187 1.313.562.332.375.453.89.36 1.547l-11.47 93.781c-.093.649-.355 1.157-.78 1.532a2.127 2.127 0 0 1-1.47.562H461.82c-.562 0-1.011-.187-1.343-.562-.325-.375-.438-.883-.344-1.532l7-57.25c.094-.375.02-.582-.219-.625-.23-.05-.437.063-.625.344l-9.515 13.719-1.672 2.515h-.14l-7.142-16.234c-.093-.281-.234-.394-.421-.344-.188.043-.329.25-.422.625l-7 57.25c-.094.649-.328 1.157-.703 1.532-.368.375-.875.562-1.532.562H416.32c-.648 0-1.136-.187-1.468-.562-.325-.375-.438-.883-.344-1.532l11.469-93.78c.093-.657.347-1.173.765-1.548a2.18 2.18 0 0 1 1.485-.562h21.265c1.125 0 1.875.515 2.25 1.547l7.407 18.187c.187.375.468.375.843 0ZM555.594 361.288c-.093.656-.355 1.172-.78 1.547-.419.375-.954.563-1.61.563h-26.032c-.468 0-.703.23-.703.687l-1.672 13.719c-.187.469 0 .703.563.703h13.578c.645 0 1.129.187 1.453.562.332.375.453.887.36 1.532l-2.235 18.343c-.281 1.399-1.078 2.094-2.39 2.094h-13.563c-.469 0-.703.235-.703.703l-1.688 13.86c-.187.468 0 .703.563.703h26.031c.656 0 1.145.187 1.469.562.332.368.453.875.36 1.532l-2.25 18.343c-.094.649-.352 1.157-.766 1.532-.418.375-.953.562-1.61.562h-50.25c-.562 0-1.007-.187-1.328-.562-.324-.375-.437-.883-.344-1.532l11.47-93.78c.093-.657.347-1.173.765-1.548a2.18 2.18 0 0 1 1.484-.562h50.235c.656 0 1.144.187 1.468.562.332.375.453.89.36 1.547ZM554.04 438.835c-.562 0-1.007-.187-1.327-.562-.325-.375-.438-.883-.344-1.532l11.469-93.78c.093-.657.347-1.173.765-1.548a2.18 2.18 0 0 1 1.485-.562h26.734c8.3 0 14.898 2.172 19.797 6.515 4.894 4.336 7.344 10.141 7.344 17.422 0 .844-.094 2.2-.282 4.063l-5.171 41.984c-.657 5.512-2.5 10.39-5.532 14.64-3.031 4.243-7 7.528-11.906 9.86-4.898 2.336-10.328 3.5-16.297 3.5Zm26.454-23.234c-.188.468 0 .703.562.703l1.954-.14c1.5-.095 2.832-.79 4-2.095 1.164-1.312 1.937-2.992 2.312-5.046l4.61-38.5.14-1.532c0-1.77-.422-3.144-1.266-4.125-.836-.976-1.949-1.468-3.343-1.468h-1.97c-.468 0-.702.23-.702.687ZM619.68 438.835c-.562 0-1.007-.187-1.328-.562-.324-.375-.437-.883-.343-1.532l11.468-93.78c.094-.657.348-1.173.766-1.548a2.18 2.18 0 0 1 1.484-.562h21.547c.563 0 1.004.187 1.328.562.332.375.454.89.36 1.547l-11.485 93.781c-.093.649-.355 1.157-.78 1.532a2.11 2.11 0 0 1-1.454.562ZM693.025 438.835c-1.305 0-1.914-.648-1.828-1.953l-.266-10.64c.094-.188.047-.348-.14-.485-.188-.145-.375-.219-.563-.219h-12.187c-.461 0-.782.235-.97.703l-2.655 10.641c-.282 1.305-1.079 1.953-2.391 1.953h-21.266c-1.406 0-1.922-.742-1.547-2.234l30.797-93.922c.375-1.219 1.211-1.828 2.516-1.828h24.781c1.3 0 2 .61 2.094 1.828l7.703 93.922v.281c0 1.305-.703 1.953-2.11 1.953Zm-10.219-34.156c-.187.469-.047.703.422.703h6.578c.281 0 .516-.234.703-.703l-.562-25.89c0-.376-.121-.536-.36-.485-.23.043-.343.203-.343.484Zm0 0"/></svg>